<svg xmlns="http://www.w3.org/2000/svg" viewBox="0 0 562.89 511.64"><defs><style>.a{fill:#fff;fill-rule:evenodd;}</style></defs><path class="a" d="M126.73,186.78c22.74,50.44,15.8,102.75-15.51,116.87s-75.11-15.31-97.84-65.74S-2.41,135.16,28.89,121,104,136.36,126.73,186.78Z"/><path class="a" d="M436.16,186.78c-22.74,50.44-15.8,102.75,15.51,116.87s75.1-15.31,97.84-65.74S565.3,135.16,534,121,458.89,136.36,436.16,186.78Z"/><path class="a" d="M259.79,85.68c11.65,54.07-6.11,103.77-39.68,111S149.88,166,138.23,111.88,144.34,8.12,177.91.88s70.22,30.73,81.88,84.8Z"/><path class="a" d="M302.27,85.73c-11.65,54.07,6.11,103.77,39.67,111s70.23-30.73,81.88-84.8S417.71,8.16,384.14.93s-70.22,30.73-81.87,84.8Z"/><path class="a" d="M217.77,266.43c-8.19,14.15-46.15,61-72.41,77S86.57,382.78,92,436.51s60.57,76.74,96.86,74.7,104.7-8.71,153.54-1.94,110.49,1.64,124.92-49.81-17.85-84.23-43-102.83S357,282.43,344.08,256.9,265.15,184.64,217.77,266.43Z"/></svg>